<?xml version="1.0" encoding="UTF-8"?>
<svg width="323px" height="67px" viewBox="0 0 323 67" version="1.1" xmlns="http://www.w3.org/2000/svg" xmlns:xlink="http://www.w3.org/1999/xlink">
    <!-- Generator: Sketch 51 (57462) - http://www.bohemiancoding.com/sketch -->
    <title>Group</title>
    <desc>Created with Sketch.</desc>
    <defs></defs>
    <g id="Page-1" stroke="none" stroke-width="1" fill="none" fill-rule="evenodd">
        <g id="Group" fill="#CE181E" fill-rule="nonzero">
            <path d="M98.4,31.6 L98.4,31.4 L98.4,27.4 C98.4,26.2 97.6,25.2 96.5,25.2 L91.5,25.2 C90.5,25.2 89.7,26.2 89.6,27.4 L89.6,27.7 C89.6,36.8 89.6,46.6 89.6,55.7 C89.6,58.7 90.7,61.3 92.8,63.5 C95,65.7 97.7,66.8 101,66.8 L135,66.8 C139,66.8 142.5,66.1 145.3,64.8 C145.3,64.8 145.4,64.8 145.4,64.7 C146.3,64.3 146.4,63.4 146.4,63 L146.4,62.8 L146.4,58 L146.4,57.8 C146.3,56.2 144.7,55.8 143.7,56.2 C143.6,56.2 143.5,56.3 143.4,56.3 C142.5,56.7 141.5,57 140.5,57.3 C138.3,58 136.1,58.3 134,58.3 L102.5,58.3 C101.2,58.3 100.2,57.9 99.3,57 C98.5,56.2 98,55.1 98,53.9 L98,43.5 L98,43.3 C98,42.1 99.1,41.5 99.7,41.4 C99.8,41.4 99.8,41.4 99.9,41.4 C109.2,40.5 116.9,39.3 123.1,38 C129.3,36.7 136.1,34.8 143,32.2 C143.1,32.2 143.1,32.2 143.2,32.1 C143.6,31.9 144.4,31.3 144.4,30.4 L144.4,30.2 L144.4,26 L144.4,25.8 C144.4,24.5 142.8,23.7 141.9,24.1 C141.9,24.1 141.8,24.1 141.8,24.1 C134.4,26.6 127.7,28.5 121.6,29.8 C115.9,31 108.9,32 100.6,32.9 C100.5,32.9 100.4,32.9 100.3,32.9 C99.6,33.5 98.4,32.8 98.4,31.6 Z M123.2,4.4 L143.8,4.4 L144.6,4.4 C153.5,4.4 151,4.4 145.4,4.4 L148.3,4.4 L148.6,4.4 C149.7,4.4 150.6,5.2 150.6,6.1 L150.6,10.7 C150.6,10.7 150.6,10.8 150.6,10.8 C150.6,19.3 150.6,29.2 150.6,15.9 L150.6,20.6 C150.6,21.6 149.9,22.5 149,22.5 L143.9,22.5 C143,22.5 142.3,21.6 142.3,20.6 L142.3,13.5 C142.3,12.8 141.7,12.2 140.9,12.1 L93.7,12.1 C92.9,12.2 92.3,12.9 92.3,13.6 L92.3,15.1 L92.3,20.7 C92.3,21.7 91.6,22.6 90.7,22.6 L85.6,22.6 C84.7,22.6 84,21.7 84,20.7 L84,16.8 C84,28.8 84,19.3 84,11.1 C84,11 84,10.9 84,10.8 L84,6.2 C84,5.3 84.9,4.5 86,4.5 L86.3,4.5 L90.9,4.5 L111.9,4.5 C112.7,4.4 113.3,3.8 113.3,3.1 L113.3,2.3 C113.3,1.2 114.1,0.3 115,0.3 L120.4,0.3 C121.4,0.3 122.1,1.2 122.1,2.3 L122.1,3.2 C121.8,3.7 122.4,4.3 123.2,4.4 Z" id="Shape"></path>
            <path d="M218.1,57.2 C218.1,60.6 217.2,63.1 215.6,64.6 C213.9,66.1 211.4,66.9 208,66.9 L204.8,66.9 L199.1,66.9 C197.8,66.9 196.8,66 196.8,64.9 L196.8,59.5 C196.8,58.4 197.9,57.5 199.1,57.5 L199.4,57.5 L204.7,57.5 L204.9,57.5 L205.2,57.5 C207.4,57.5 208.5,56.4 208.5,54.2 C208.5,37 208.5,19.5 208.5,2.3 C208.5,1.1 209.4,0.1 210.4,0.1 L216.3,0.1 C217.3,0.1 218.2,1.1 218.2,2.3 L218.1,57.2 Z M194.5,11.2 C194.5,11.3 194.5,11.3 194.5,11.4 C194.4,20.8 193.8,29.3 192.7,36.9 C191.6,44.4 190.1,50.9 188.3,56.6 C188.3,56.6 188.3,56.7 188.3,56.7 C188.2,57.2 187.5,58.1 186.5,58.1 L187,58.1 L181,58.1 L181.5,58.1 C179.7,58 178.7,56.5 179,55.7 C179,55.7 179,55.6 179,55.6 C180.7,49.9 182,44 183,37.8 C184.3,29.6 185,20.8 185.1,11.4 C185.1,11.4 185.1,11.3 185.1,11.3 C185.1,9.7 186.7,9.4 187,9.4 L187.1,9.4 L192.4,9.4 L192.5,9.4 C193.5,9.2 194.5,9.9 194.5,11.2 Z M239.7,10.8 L239.7,11 L245,55.8 L245,55.9 C245.1,57.3 243.8,57.9 243.1,57.9 L242.9,57.9 L237.7,57.9 L237.5,57.9 C237.2,57.9 235.9,57.7 235.7,56.4 L235.7,56.2 L230.4,11.3 L230.4,11.2 C230.3,9.6 231.8,9.1 232.3,9.1 L232.4,9.1 L237.7,9.1 L237.8,9.1 C238.5,9.3 239.5,9.7 239.7,10.8 Z" id="Shape"></path>
            <path d="M317,7.1 L302.5,7.1 L302.3,7.1 C301.1,7 299.9,8.4 300.6,9.8 L300.7,10 L303.9,15.5 L304,15.6 C304.3,16.2 305,16.5 305.6,16.5 L305.7,16.5 L318.5,16.5 C318.7,16.5 318.8,16.5 319,16.5 C319.9,16.5 320.9,17 320.9,18.5 L320.9,18.8 L320.9,60 L320.9,64.6 C320.9,65.7 320.1,66.6 319.2,66.6 L314.5,66.6 C313.5,66.6 312.8,65.7 312.8,64.6 L312.8,64.3 L312.8,59.9 L312.8,24 L312.8,24.8 C312.8,24.1 312.2,23.4 311.4,23.3 L306,23.3 C305.2,23.4 304.6,24.1 304.6,24.8 L304.6,24 L304.6,65.4 C304.6,66.1 304,66.7 303.2,66.8 L276.4,66.8 C275.6,66.7 275,66.1 275,65.4 C275,51.8 275,38.2 275,24.6 C275,23.9 274.4,23.3 273.6,23.2 L268.3,23.2 C267.5,23.3 266.9,24 266.9,24.7 C266.9,38.1 266.9,51.3 266.9,64.8 C266.9,65.9 266.1,66.8 265.2,66.8 L260.5,66.8 C259.5,66.8 258.8,65.9 258.8,64.8 L258.8,46.4 C258.8,37.4 258.8,28.4 258.8,19.5 L258.8,19.2 C258.7,17.4 259.5,16.6 260.4,16.5 C260.5,16.5 260.7,16.5 260.8,16.5 L273.9,16.5 L274.1,16.5 C274.7,16.4 275.2,16.3 275.7,15.5 L275.8,15.4 L278.9,10 L279.1,9.7 C279.7,8.4 278.8,6.9 277.4,7 L277.1,7 L262.4,7 L258.1,7 C257.1,7 256.4,6.3 256.4,5.5 L256.4,1.5 C256.4,0.7 257.2,5.68434189e-14 258.1,5.68434189e-14 L258.3,5.68434189e-14 L262.3,5.68434189e-14 L317,5.68434189e-14 L321,5.68434189e-14 L321.2,5.68434189e-14 C322.2,5.68434189e-14 322.9,0.7 322.9,1.5 L322.9,5.5 C322.9,6.3 322.1,7 321.2,7 L317,7 L317,7.1 Z M290.2,7.1 L290.1,7.1 L289.5,7.1 L289.4,7.1 C288.6,7.1 288,7.6 287.8,8 L287.7,8.1 L284.5,13.7 L284.4,13.8 C283.8,14.9 284.5,16.4 286.1,16.5 L286.4,16.5 L293.4,16.5 L293.6,16.5 C295.2,16.5 295.9,14.9 295.3,13.8 L295.2,13.6 L292,8 L291.9,7.9 C291.4,7.5 291.1,7.1 290.2,7.1 Z M284.1,52.6 C283.1,52.6 282.7,53.1 282.7,54.1 L282.7,58.8 L282.7,58.9 C282.7,59.9 283.5,60.3 284.1,60.3 L284.3,60.3 L295.4,60.3 C296.2,60.2 296.8,59.5 296.8,58.8 L296.8,54.3 L296.8,54 C296.8,53.2 296.2,52.5 295.4,52.5 L295.2,52.5 L284.1,52.5 L284.1,52.6 Z M295.4,46.3 C296.2,46.2 296.8,45.6 296.8,44.9 L296.8,40.3 L296.8,40 C296.8,39.2 296.2,38.6 295.4,38.6 L295.1,38.6 L284.1,38.6 C283.3,38.7 282.7,39.4 282.7,40.1 L282.7,39 L282.7,44.6 L282.7,44.7 C282.7,45.9 283.7,46.3 284.1,46.3 L284.2,46.3 L295.4,46.3 Z M284.1,23.3 C283.3,23.4 282.7,24.1 282.7,24.8 L282.7,23.7 L282.7,30.8 L282.7,30.9 C282.7,31.8 283.7,32.4 284.1,32.4 L284.3,32.4 L294.9,32.4 L295.1,32.4 C295.8,32.4 296.7,31.8 296.7,31 L296.7,30.8 L296.7,24.9 L296.7,24.8 C296.7,23.9 296.1,23.4 295.3,23.4 L295.2,23.4 L284.1,23.4 L284.1,23.3 Z" id="Shape"></path>
            <path d="M1.7,34.8 L1.6,34.9 L1.7,34.8 Z M8.2,4.5 L15.7,4.5 C16.8,4.5 17.7,3.7 17.8,2.6 C17.8,2.4 17.8,2.1 17.8,1.8 C17.9,0.5 18.6,0.1 19.7,0.1 L20.9,0.1 L25,0.1 C26.2,0.1 26.8,0.6 26.8,1.8 C26.8,2 26.8,2.2 26.8,2.4 C26.8,3.5 27.8,4.4 28.9,4.4 L67.4,4.4 C68.5,4.4 69.4,5.3 69.4,6.4 L69.4,10.2 C69.4,11.3 68.5,12.2 67.4,12.2 L27.1,12.2 C25.7,12.2 24.8,13.4 24.4,14.7 C23.9,16.1 23.3,17.4 22.7,18.8 L64.7,18.8 C65.9,18.8 66.8,19.8 66.8,20.9 L66.8,22.5 L66.8,23.8 L66.8,54 L66.8,56.3 L66.8,59.7 C66.8,62.1 65,66.7 60.2,66.7 L50.5,66.7 C49.8,66.7 49.3,66.1 49.3,65.5 L49.3,60.4 C49.3,59.7 50.1,59.2 50.8,59.2 L55.4,59.2 C57.3,59.2 57.9,58.8 58,57.2 C58,57 58,54.4 58,54.2 L58,28.6 C58,27.2 56.9,26.1 55.5,26.1 L21.6,26.1 C20.2,26.1 19.1,27.2 19.1,28.6 L19.1,30.5 C19.1,31.9 20.2,33 21.6,33 L52.8,33 C53.5,33 54,33.6 54,34.2 L54,38.9 C54,39.6 53.4,40.1 52.8,40.1 L21.6,40.1 C20.2,40.1 19.1,41.2 19.1,42.6 L19.1,44.5 C19.1,45.9 20.2,47 21.6,47 L52.8,47 C53.5,47 54,47.6 54,48.2 L54,52.9 C54,53.6 53.4,54.1 52.8,54.1 L19,54.1 L19,65.3 C19,66 18.4,66.5 17.8,66.5 L12,66.5 C11.3,66.5 10.8,65.9 10.8,65.3 L10.8,34.1 C9.3,35.3 7.7,36.4 6.1,37.4 C5.1,38 3.7,38 3,36.9 L1.8,34.7 L1.8,34.6 L0.7,32.6 C1.88737914e-15,31.3 0.7,30.2 1.8,29.5 C3.5,28.5 5,27.3 6.5,26 C10,22.8 12.8,18.8 14.8,14.5 C15.2,13.3 14.8,12.7 14.1,12.4 C13.8,12.3 13.3,12.2 12.9,12.2 L12.6,12.2 L8.2,12.2 C7.1,12.2 6.2,11.3 6.2,10.2 L6.2,6.4 C6.2,5.4 7.1,4.5 8.2,4.5 Z" id="Shape"></path>
            <path d="M165.9,56.3 C165.9,55 165,54 163.7,54 C161.8,54 160.5,56 160.5,57.7 C160.5,59 161.2,60.1 162.6,60.1 C163.5,60.1 164.3,59.7 164.9,58.9 C165.6,58.1 165.9,57.2 165.9,56.3 Z M166.7,53 L166.8,52.6 C166.9,52.3 167,52.2 167.3,52.2 L168.7,52.2 C169.1,52.2 169.1,52.5 169.1,52.8 C168.6,55 167.7,57.8 167.7,60 C167.7,60.4 167.9,60.5 168.1,60.5 C168.4,60.5 168.8,60.3 169.1,59.9 C170.2,58.8 171,57.3 171.2,55.6 C172.4,46.1 156.1,46 156.1,56.6 C156.1,59.2 157.2,61.5 159,62.9 C162.7,65.7 168.5,64.6 171.4,61.6 C171.7,61.3 171.9,61.3 172.3,61.5 C172.5,61.6 172.8,61.8 173,61.9 C173.3,62.1 173.5,62.3 173.2,62.6 C170.2,65.9 165.5,67.4 160.9,66.2 C156.7,65.1 153.3,61.5 153.3,56.5 C153.3,53.6 154.3,51.1 156.4,49.1 C160.7,45 168.3,45 171.7,49.5 C174.3,52.9 173.8,57.9 170.8,60.8 C169.7,61.8 167,63.4 165.5,62.2 C165.2,61.9 165,61.6 165,61.1 C162.3,63.7 157.7,61.9 157.7,57.8 C157.7,56 158.2,54.5 159.3,53.1 C161,51 165.2,50.7 166.7,53 Z" id="Shape"></path>
        </g>
    </g>
</svg>